<?xml version="1.0" encoding="UTF-8"?><svg id="a" xmlns="http://www.w3.org/2000/svg" width="707.01" height="661.7" viewBox="0 0 707.01 661.7"><path d="m243.61,409.09c-.06-1.58-.13-3.19-.21-4.84,1.12.05,2.24.09,3.35.13,1.11.04,2.22.06,3.34.06s2.25-.02,3.4-.06c1.15-.04,2.39-.08,3.74-.13-.07.37-.11.75-.11,1.12s.04.75.11,1.12c-.67-.08-1.48-.14-2.43-.21-.95-.06-1.91-.11-2.9-.15s-1.93-.07-2.84-.09c-.91-.03-1.66-.04-2.26-.04-.03.87-.04,1.71-.05,2.5-.01.8-.02,1.59-.02,2.39,0,.87,0,1.68.02,2.41.01.74.02,1.5.02,2.3,1.64,0,3.27-.02,4.88-.08,1.61-.05,3.19-.15,4.76-.3-.1.37-.15.75-.15,1.12s.05.75.15,1.12c-.62-.08-1.33-.13-2.11-.17-.79-.04-1.6-.07-2.45-.09-.85-.02-1.71-.04-2.58-.04h-2.5v3.18c0,1.64.03,3.26.09,4.86s.13,3.16.21,4.71c-.57-.05-1.18-.07-1.83-.07s-1.26.02-1.83.07c.08-1.54.14-3.11.21-4.71.06-1.59.09-3.21.09-4.86v-6.43c0-1.64-.03-3.26-.09-4.84Z" fill="#fff" stroke-width="0"/><path d="m260.3,417.14c0-2.12.34-4,1.03-5.66.69-1.66,1.64-3.06,2.88-4.2,1.23-1.15,2.71-2.02,4.43-2.62s3.6-.9,5.64-.9,3.96.3,5.68.9,3.2,1.47,4.43,2.62c1.23,1.15,2.19,2.55,2.88,4.2.69,1.66,1.03,3.54,1.03,5.66s-.34,4-1.03,5.66-1.64,3.06-2.88,4.2c-1.23,1.15-2.71,2-4.43,2.56s-3.61.84-5.68.84-3.92-.28-5.64-.84-3.19-1.41-4.43-2.56c-1.23-1.15-2.19-2.55-2.88-4.2s-1.03-3.54-1.03-5.66Zm24.32,0c0-2.07-.26-3.85-.79-5.36-.52-1.51-1.25-2.75-2.19-3.74-.93-.98-2.03-1.71-3.29-2.19-1.26-.47-2.62-.71-4.09-.71s-2.8.24-4.05.71c-1.26.47-2.35,1.2-3.29,2.19-.94.98-1.66,2.23-2.19,3.74-.52,1.51-.79,3.29-.79,5.36s.26,3.85.79,5.36c.52,1.51,1.25,2.75,2.19,3.74.93.98,2.03,1.71,3.29,2.19,1.26.47,2.61.71,4.05.71s2.83-.24,4.09-.71c1.26-.47,2.36-1.2,3.29-2.19s1.66-2.23,2.19-3.74.79-3.29.79-5.36Z" fill="#fff" stroke-width="0"/><path d="m312.98,416.39c0-3.54-.01-6.26-.04-8.18-.02-1.92-.09-3.24-.19-3.96.27.05.54.09.78.13.25.04.5.06.75.06.32,0,.7-.06,1.12-.19-.07.87-.15,1.91-.22,3.12s-.14,2.5-.19,3.89c-.05,1.38-.1,2.8-.15,4.26-.05,1.46-.09,2.87-.11,4.24-.03,1.67-.28,3.16-.77,4.48-.48,1.32-1.18,2.44-2.07,3.36-.9.92-2,1.62-3.31,2.09-1.31.47-2.81.71-4.5.71-3.74,0-6.45-.85-8.15-2.54-1.69-1.69-2.54-4.37-2.54-8.03,0-1.17.03-2.21.09-3.12s.09-1.84.09-2.78c0-2.09-.03-3.95-.07-5.57-.05-1.62-.1-2.99-.15-4.11.3.05.62.09.97.13.35.04.67.06.97.06.27,0,.54-.02.8-.06.26-.04.53-.08.8-.13-.05.55-.1,1.26-.15,2.15-.05.88-.1,1.89-.15,3.01-.05,1.12-.09,2.33-.11,3.62-.03,1.3-.04,2.64-.04,4.04,0,.85.01,1.73.04,2.63.03.91.11,1.79.26,2.65.15.86.39,1.68.73,2.47.34.78.82,1.47,1.44,2.05.62.59,1.41,1.05,2.35,1.38.95.34,2.12.5,3.51.5s2.52-.2,3.46-.6c.93-.4,1.7-.92,2.3-1.57.6-.65,1.06-1.39,1.4-2.24.34-.85.58-1.73.73-2.65.15-.92.24-1.84.26-2.76.03-.92.04-1.77.04-2.54Z" fill="#fff" stroke-width="0"/><path d="m334.46,420.22c-3.24-3.47-6.48-6.93-9.71-10.37-.02.7-.05,1.63-.07,2.8-.03,1.17-.04,2.77-.04,4.78,0,.52,0,1.17.02,1.94.01.77.02,1.58.04,2.43.01.85.03,1.71.05,2.58.03.87.05,1.68.08,2.43.02.75.05,1.4.07,1.96s.05.94.07,1.14c-.4-.05-.83-.07-1.31-.07-.5,0-.96.02-1.38.07.05-.25.11-.71.17-1.38.06-.67.12-1.48.17-2.41.05-.93.11-1.95.17-3.04s.11-2.19.15-3.29c.04-1.1.07-2.17.09-3.21.02-1.05.04-1.98.04-2.8,0-2.39,0-4.45-.02-6.17-.01-1.72-.04-3-.09-3.85h.6c1.52,1.64,3.14,3.41,4.88,5.29,1.73,1.88,3.45,3.74,5.16,5.57,1.71,1.83,3.32,3.56,4.86,5.19,1.53,1.63,2.87,3.02,4.02,4.17v-5.08c0-2.62-.02-5.16-.06-7.64s-.12-4.81-.24-7.01c.5.12.92.19,1.27.19.3,0,.7-.06,1.2-.19-.05.55-.11,1.37-.17,2.47-.06,1.1-.12,2.27-.19,3.51-.06,1.25-.12,2.47-.17,3.66-.05,1.2-.08,2.15-.08,2.88v2.24c0,.85,0,1.73.02,2.65.01.92.03,1.85.04,2.78.01.93.03,1.81.04,2.62.01.81.02,1.51.02,2.11v1.23h-.52c-2.87-3.31-5.92-6.71-9.15-10.18Z" fill="#fff" stroke-width="0"/><path d="m351.65,413.92c0-1.64-.03-3.26-.09-4.84s-.13-3.19-.21-4.84c.95.05,1.89.09,2.82.13s1.88.06,2.82.06,1.89-.03,2.82-.09,1.87-.09,2.82-.09c2.19,0,4.07.29,5.62.86,1.56.57,2.83,1.39,3.83,2.45s1.72,2.35,2.19,3.89.69,3.26.69,5.17c0,2.49-.43,4.59-1.29,6.3s-1.96,3.08-3.29,4.13c-1.33,1.05-2.8,1.79-4.41,2.22-1.61.44-3.14.65-4.61.65-.85,0-1.68-.01-2.5-.04-.82-.03-1.66-.04-2.5-.04h-2.5c-.82,0-1.66.02-2.5.07.07-1.54.14-3.11.21-4.71s.09-3.21.09-4.86v-6.43Zm3.06,6.43c0,2.69.07,5.33.22,7.92.52.12,1.23.22,2.13.28s1.82.09,2.76.09c1.37,0,2.74-.16,4.11-.49,1.37-.32,2.6-.93,3.68-1.83,1.08-.9,1.97-2.12,2.65-3.68s1.03-3.57,1.03-6.03c0-2.17-.27-3.95-.8-5.34-.54-1.39-1.27-2.5-2.21-3.31s-2.05-1.37-3.34-1.68c-1.29-.31-2.71-.47-4.26-.47-1.12,0-2.17.04-3.14.11-.97.07-1.84.16-2.62.26-.07,1.2-.13,2.45-.17,3.75s-.05,2.63-.05,3.98v6.43Z" fill="#fff" stroke-width="0"/><path d="m399.29,429.91c-.35-.05-.68-.07-.99-.07h-1.98c-.31,0-.64.02-.99.07-.18-.57-.41-1.26-.71-2.07s-.63-1.66-.99-2.54c-.36-.88-.73-1.78-1.1-2.69s-.72-1.78-1.05-2.6c-.8-.03-1.61-.04-2.43-.06-.82-.01-1.64-.02-2.47-.02-.77,0-1.53,0-2.28.02-.75.01-1.51.03-2.28.06-.8,1.94-1.52,3.79-2.17,5.55s-1.13,3.21-1.46,4.35c-.42-.05-.88-.07-1.38-.07s-.96.02-1.38.07c2.02-4.36,3.99-8.69,5.9-13,1.92-4.31,3.85-8.69,5.79-13.15h.71c.6,1.44,1.24,3.01,1.94,4.69.7,1.68,1.41,3.38,2.13,5.1.72,1.72,1.44,3.42,2.17,5.12.72,1.69,1.4,3.27,2.04,4.73s1.21,2.76,1.72,3.9c.51,1.15.93,2.02,1.25,2.62Zm-16.55-11.62c.65,0,1.32.01,2.02.04.7.03,1.37.04,2.02.04.7,0,1.39,0,2.09-.02s1.39-.03,2.09-.06l-4.15-9.49-4.07,9.49Z" fill="#fff" stroke-width="0"/><path d="m405.9,406.19c-.65,0-1.33,0-2.04.02s-1.42.04-2.13.07c-.71.04-1.4.08-2.05.13-.66.05-1.25.11-1.78.19.12-.45.19-.85.19-1.2,0-.27-.06-.66-.19-1.16,1.64.05,3.25.09,4.82.13,1.57.04,3.18.06,4.82.06s3.25-.02,4.82-.06,3.18-.08,4.82-.13c-.12.5-.19.9-.19,1.2,0,.32.06.71.19,1.16-.52-.07-1.12-.14-1.78-.19-.66-.05-1.35-.09-2.05-.13-.71-.04-1.42-.06-2.13-.07-.71-.01-1.39-.02-2.04-.02-.07,2.57-.11,5.14-.11,7.73v6.43c0,1.64.03,3.26.09,4.86s.13,3.16.21,4.71c-.57-.05-1.18-.07-1.83-.07s-1.26.02-1.83.07c.07-1.54.14-3.11.21-4.71s.09-3.21.09-4.86v-6.43c0-2.59-.04-5.17-.11-7.73Z" fill="#fff" stroke-width="0"/><path d="m421.5,409.09c-.06-1.58-.13-3.19-.21-4.84.32.05.63.09.93.13s.6.06.9.06.6-.02.9-.06.61-.08.94-.13c-.08,1.64-.14,3.26-.21,4.84s-.09,3.19-.09,4.84v6.43c0,1.64.03,3.26.09,4.86s.13,3.16.21,4.71c-.57-.05-1.18-.07-1.83-.07s-1.26.02-1.83.07c.07-1.54.14-3.11.21-4.71s.09-3.21.09-4.86v-6.43c0-1.64-.03-3.26-.09-4.84Z" fill="#fff" stroke-width="0"/><path d="m429.88,417.14c0-2.12.34-4,1.03-5.66.68-1.66,1.64-3.06,2.88-4.2,1.23-1.15,2.71-2.02,4.43-2.62s3.6-.9,5.64-.9,3.96.3,5.68.9,3.19,1.47,4.43,2.62c1.23,1.15,2.19,2.55,2.88,4.2.68,1.66,1.03,3.54,1.03,5.66s-.34,4-1.03,5.66c-.69,1.66-1.64,3.06-2.88,4.2-1.23,1.15-2.71,2-4.43,2.56s-3.61.84-5.68.84-3.92-.28-5.64-.84-3.2-1.41-4.43-2.56c-1.23-1.15-2.19-2.55-2.88-4.2-.69-1.66-1.03-3.54-1.03-5.66Zm24.32,0c0-2.07-.26-3.85-.79-5.36-.52-1.51-1.25-2.75-2.19-3.74-.93-.98-2.03-1.71-3.29-2.19-1.26-.47-2.62-.71-4.09-.71s-2.8.24-4.05.71c-1.26.47-2.36,1.2-3.29,2.19-.93.98-1.66,2.23-2.19,3.74-.52,1.51-.79,3.29-.79,5.36s.26,3.85.79,5.36,1.25,2.75,2.19,3.74,2.03,1.71,3.29,2.19c1.26.47,2.61.71,4.05.71s2.83-.24,4.09-.71c1.26-.47,2.35-1.2,3.29-2.19.94-.98,1.66-2.23,2.19-3.74.52-1.51.79-3.29.79-5.36Z" fill="#fff" stroke-width="0"/><path d="m474.98,420.22c-3.24-3.47-6.48-6.93-9.71-10.37-.02.7-.05,1.63-.07,2.8-.03,1.17-.04,2.77-.04,4.78,0,.52,0,1.17.02,1.94.01.77.02,1.58.04,2.43.01.85.03,1.71.05,2.58.03.87.05,1.68.08,2.43.02.75.05,1.4.07,1.96s.05.94.07,1.14c-.4-.05-.83-.07-1.31-.07-.5,0-.96.02-1.38.07.05-.25.11-.71.17-1.38.06-.67.12-1.48.17-2.41.05-.93.11-1.95.17-3.04s.11-2.19.15-3.29c.04-1.1.07-2.17.09-3.21.02-1.05.04-1.98.04-2.8,0-2.39,0-4.45-.02-6.17-.01-1.72-.04-3-.09-3.85h.6c1.52,1.64,3.14,3.41,4.88,5.29,1.73,1.88,3.45,3.74,5.16,5.57,1.71,1.83,3.32,3.56,4.86,5.19,1.53,1.63,2.87,3.02,4.02,4.17v-5.08c0-2.62-.02-5.16-.06-7.64s-.12-4.81-.24-7.01c.5.12.92.19,1.27.19.3,0,.7-.06,1.2-.19-.05.55-.11,1.37-.17,2.47-.06,1.1-.12,2.27-.19,3.51-.06,1.25-.12,2.47-.17,3.66-.05,1.2-.08,2.15-.08,2.88v2.24c0,.85,0,1.73.02,2.65.01.92.03,1.85.04,2.78.01.93.03,1.81.04,2.62.01.81.02,1.51.02,2.11v1.23h-.52c-2.87-3.31-5.92-6.71-9.15-10.18Z" fill="#fff" stroke-width="0"/><path d="m203.65,461.35c.2.27.45.52.73.74.29.22.62.4,1.01.54.39.14.81.21,1.29.21s.93-.08,1.32-.26c.39-.17.73-.4,1-.69s.48-.63.63-1.02.22-.81.22-1.25c0-.68-.17-1.22-.52-1.62-.35-.4-.78-.73-1.3-1-.52-.27-1.08-.51-1.68-.73-.6-.22-1.16-.5-1.68-.83-.52-.33-.95-.76-1.3-1.28s-.52-1.21-.52-2.09c0-.62.11-1.19.33-1.7.22-.51.54-.95.97-1.32s.93-.66,1.52-.87c.59-.21,1.26-.31,2-.31s1.33.08,1.84.26c.52.17,1,.43,1.45.79-.13.25-.24.52-.33.8-.09.28-.18.64-.27,1.07h-.27c-.07-.21-.17-.43-.3-.68-.13-.24-.3-.47-.51-.68-.21-.21-.47-.38-.77-.52-.29-.14-.65-.21-1.07-.21s-.79.07-1.14.2c-.35.13-.65.32-.91.57-.26.24-.46.54-.6.88-.14.34-.21.71-.21,1.11,0,.7.17,1.24.52,1.64.35.4.78.74,1.3,1.01.52.27,1.08.52,1.68.73.6.21,1.16.48,1.68.79.52.31.95.71,1.3,1.2.35.49.52,1.14.52,1.96,0,.68-.12,1.33-.37,1.93-.25.61-.6,1.14-1.07,1.59-.47.45-1.04.8-1.71,1.04-.68.24-1.44.37-2.3.37-.92,0-1.66-.12-2.23-.37-.57-.25-1.05-.52-1.43-.83.13-.34.23-.65.28-.92.05-.27.1-.62.14-1.06h.27c.12.27.28.54.48.81Z" fill="#fff" stroke-width="0"/><path d="m214.28,460.07c0-.79.01-1.46.03-2.01.02-.56.03-1.11.03-1.66,0-.52,0-1.08-.01-1.69,0-.61-.02-1.22-.03-1.84.37.07.68.11.93.11.24,0,.54-.04.91-.11-.07.89-.13,1.86-.17,2.92-.04,1.06-.05,2.14-.05,3.25,0,.77.07,1.36.2,1.77s.3.71.49.92c.21.24.47.43.79.59s.69.23,1.12.23c.62,0,1.14-.14,1.55-.41.41-.27.72-.61.91-1.01.1-.25.19-.47.25-.64.06-.18.11-.41.14-.71.04-.3.06-.7.07-1.2,0-.5,0-1.19,0-2.07v-1.87c0-.33,0-.64,0-.93,0-.3-.02-.58-.03-.84.16.03.32.06.46.08.15.02.3.03.47.03s.32-.01.47-.03c.15-.02.3-.05.45-.08-.07,1.16-.12,2.27-.13,3.34-.01,1.07-.02,2.21-.02,3.41,0,.67,0,1.32.02,1.96.02.64.04,1.25.07,1.84-.3-.03-.59-.04-.87-.04s-.57.01-.87.04c.02-.13.03-.27.03-.42,0-.15.01-.3.01-.47v-.96h-.04c-.38.71-.88,1.23-1.49,1.57s-1.27.5-1.98.5c-1.16,0-2.06-.31-2.72-.92-.66-.62-.99-1.5-.99-2.66Z" fill="#fff" stroke-width="0"/><path d="m226.39,459.34c0-.5,0-1.05-.01-1.64,0-.59-.02-1.18-.03-1.77-.02-.58-.03-1.14-.06-1.68-.02-.53-.05-.99-.08-1.38.41.07.75.11,1,.11s.58-.04,1-.11c-.06.39-.11.76-.13,1.11s-.04.71-.04,1.07h.04c.1-.24.25-.49.45-.77.19-.27.44-.53.74-.78.3-.25.67-.45,1.1-.61s.92-.24,1.47-.24,1.12.11,1.67.32c.55.22,1.03.54,1.46.99s.76,1.01,1.02,1.7c.26.69.39,1.51.39,2.46s-.14,1.77-.42,2.47-.65,1.27-1.1,1.73c-.45.46-.97.8-1.54,1.01-.58.21-1.16.32-1.73.32-1.63,0-2.79-.7-3.49-2.11h-.04v1.4c0,.47,0,1,0,1.59s.02,1.17.03,1.75c.02.58.03,1.13.06,1.66.02.53.05.97.08,1.34-.42-.07-.75-.11-1-.11s-.59.04-1,.11c.03-.37.05-.82.08-1.34.02-.53.04-1.08.06-1.66.01-.58.03-1.16.03-1.75s.01-1.11.01-1.59v-3.6Zm8.02-1.24c0-.89-.09-1.62-.28-2.2-.19-.58-.42-1.04-.71-1.39-.29-.35-.62-.59-.99-.72-.37-.13-.73-.2-1.09-.2-.59,0-1.1.13-1.52.38s-.77.59-1.03,1.01c-.27.42-.46.92-.58,1.49-.12.57-.18,1.17-.18,1.81,0,3.08,1.08,4.62,3.24,4.62.53,0,1-.12,1.39-.37s.72-.58.98-1.02c.26-.44.45-.95.58-1.53.12-.58.19-1.21.19-1.88Z" fill="#fff" stroke-width="0"/><path d="m238.74,459.34c0-.5,0-1.05-.01-1.64,0-.59-.02-1.18-.03-1.77-.02-.58-.03-1.14-.06-1.68-.02-.53-.05-.99-.08-1.38.41.07.75.11,1,.11s.58-.04,1-.11c-.06.39-.11.76-.13,1.11s-.04.71-.04,1.07h.04c.1-.24.25-.49.45-.77.19-.27.44-.53.74-.78.3-.25.67-.45,1.1-.61s.92-.24,1.47-.24,1.12.11,1.67.32c.55.22,1.03.54,1.46.99s.76,1.01,1.02,1.7c.26.69.39,1.51.39,2.46s-.14,1.77-.42,2.47-.65,1.27-1.1,1.73c-.45.46-.97.8-1.54,1.01-.58.21-1.16.32-1.73.32-1.63,0-2.79-.7-3.49-2.11h-.04v1.4c0,.47,0,1,0,1.59s.02,1.17.03,1.75c.02.58.03,1.13.06,1.66.02.53.05.97.08,1.34-.42-.07-.75-.11-1-.11s-.59.04-1,.11c.03-.37.05-.82.08-1.34.02-.53.04-1.08.06-1.66.01-.58.03-1.16.03-1.75s.01-1.11.01-1.59v-3.6Zm8.02-1.24c0-.89-.09-1.62-.28-2.2-.19-.58-.42-1.04-.71-1.39-.29-.35-.62-.59-.99-.72-.37-.13-.73-.2-1.09-.2-.59,0-1.1.13-1.52.38s-.77.59-1.03,1.01c-.27.42-.46.92-.58,1.49-.12.57-.18,1.17-.18,1.81,0,3.08,1.08,4.62,3.24,4.62.53,0,1-.12,1.39-.37s.72-.58.98-1.02c.26-.44.45-.95.58-1.53.12-.58.19-1.21.19-1.88Z" fill="#fff" stroke-width="0"/><path d="m250.43,458.18c0-1.01.16-1.86.48-2.57.32-.7.74-1.27,1.26-1.71.52-.44,1.1-.76,1.74-.96.64-.2,1.29-.3,1.92-.3s1.29.1,1.93.3c.64.2,1.21.52,1.73.96.52.44.94,1.01,1.26,1.71.32.7.48,1.56.48,2.57s-.16,1.86-.48,2.57c-.32.7-.74,1.27-1.26,1.71-.52.44-1.1.74-1.73.92s-1.28.27-1.93.27-1.28-.09-1.92-.27-1.23-.49-1.74-.92c-.52-.44-.94-1.01-1.26-1.71-.32-.7-.48-1.56-.48-2.57Zm1.96,0c0,.62.06,1.22.17,1.8.11.58.3,1.09.57,1.54.27.45.62.81,1.07,1.08.44.27.99.4,1.64.4s1.2-.13,1.64-.4c.44-.27.8-.62,1.07-1.08.27-.45.46-.97.57-1.54.11-.58.17-1.18.17-1.8s-.05-1.22-.17-1.8c-.11-.58-.3-1.09-.57-1.54-.27-.45-.62-.81-1.07-1.08-.45-.27-.99-.4-1.64-.4s-1.2.13-1.64.4c-.45.27-.8.63-1.07,1.08-.27.45-.46.97-.57,1.54-.11.58-.17,1.18-.17,1.8Z" fill="#fff" stroke-width="0"/><path d="m268.35,454.45c-.21-.07-.43-.11-.65-.11-.36,0-.68.08-.96.24s-.52.38-.71.66c-.19.27-.34.6-.44.98s-.16.78-.16,1.21v2.44c0,.99,0,1.75.01,2.28,0,.53.03.95.08,1.28-.3-.03-.59-.04-.89-.04-.33,0-.64.01-.93.04.04-.5.07-1.19.08-2.05,0-.87,0-1.93,0-3.19v-.71c0-.58,0-1.24,0-2,0-.76-.03-1.62-.08-2.6.16.03.32.06.47.08.15.02.3.03.47.03.13,0,.27-.01.42-.03.15-.02.3-.05.47-.08-.06.53-.09.96-.1,1.27,0,.31,0,.61,0,.89l.04.02c.87-1.6,1.85-2.4,2.93-2.4.13,0,.25,0,.34.02.1.02.22.05.37.11-.07.18-.12.45-.13.81-.02.36-.02.69-.02.99l-.16.11c-.07-.09-.22-.17-.43-.25Z" fill="#fff" stroke-width="0"/><path d="m273.11,449.9c-.04.56-.08,1.12-.1,1.66-.02.54-.05,1.09-.08,1.63.16,0,.47,0,.91-.01.45,0,.93-.03,1.45-.06-.02.04-.02.13-.02.25v.47c0,.1,0,.18.02.22-.19-.01-.39-.03-.6-.03-.21,0-.43-.01-.67-.01h-1.09c-.02.06-.03.3-.05.71-.02.42-.04.91-.06,1.48-.01.57-.03,1.17-.03,1.79s-.01,1.18-.01,1.67c0,.42.01.82.03,1.22.02.4.09.76.21,1.08.12.32.29.57.53.77.24.19.58.29,1.02.29.12,0,.28-.01.48-.04.2-.03.38-.07.52-.11v.53c-.25.04-.53.1-.83.17-.3.07-.6.1-.88.1-.93,0-1.62-.23-2.07-.69-.45-.46-.67-1.13-.67-2.02,0-.4,0-.83.02-1.3.01-.47.03-.98.05-1.53.02-.56.04-1.17.06-1.84.01-.67.02-1.43.02-2.26h-.71c-.12,0-.24,0-.38.01s-.28.02-.42.03c.01-.09.03-.17.03-.26,0-.08,0-.17,0-.25,0-.07,0-.15,0-.22,0-.07-.02-.15-.03-.22.67.04,1.15.07,1.46.07-.01-.3-.03-.67-.03-1.11s-.03-.9-.05-1.38l1.84-.78h.11Z" fill="#fff" stroke-width="0"/><path d="m277.54,449.01c0-.31.11-.58.33-.8.22-.22.49-.33.8-.33s.58.11.8.33c.22.22.33.49.33.8s-.11.58-.33.8c-.22.22-.49.33-.8.33s-.58-.11-.8-.33c-.22-.22-.33-.49-.33-.8Zm.31,8.02c0-.67-.01-1.37-.03-2.1-.02-.73-.07-1.42-.14-2.06.41.07.75.11,1,.11s.58-.04,1-.11c-.07.64-.12,1.32-.14,2.06-.02.73-.03,1.43-.03,2.1v2.31c0,.67.01,1.37.03,2.1.02.73.07,1.4.14,1.99-.34-.03-.67-.04-1-.04s-.66.01-1,.04c.07-.59.12-1.25.14-1.99.02-.73.03-1.43.03-2.1v-2.31Z" fill="#fff" stroke-width="0"/><path d="m290.05,454.66c-.43-.57-1.02-.86-1.78-.86-1.04,0-1.8.32-2.28.96-.48.64-.72,1.53-.72,2.69v1.89c0,.67.01,1.37.03,2.1.02.73.07,1.4.14,1.99-.34-.03-.67-.04-1-.04s-.66.01-1,.04c.07-.59.12-1.25.14-1.99.02-.73.03-1.43.03-2.1v-2.31c0-.67,0-1.37-.03-2.1-.02-.73-.07-1.42-.14-2.06.42.07.75.11,1,.11.12,0,.25-.01.39-.03.14-.02.31-.05.5-.08-.04.59-.07,1.19-.07,1.78h.04c.41-.64.91-1.13,1.49-1.48.58-.35,1.27-.52,2.07-.52.41,0,.83.06,1.26.18.42.12.8.32,1.14.61.34.29.62.68.83,1.18s.32,1.13.32,1.9c0,.64-.01,1.29-.04,1.97-.03.67-.04,1.39-.04,2.14v1.44c0,.24,0,.47,0,.7s.02.45.03.66c-.29-.03-.61-.04-.93-.04s-.62.01-.91.04c.03-.77.06-1.56.1-2.38s.06-1.65.06-2.51v-1.36c0-1.11-.21-1.95-.64-2.52Z" fill="#fff" stroke-width="0"/><path d="m295.22,456.27c0-.62.11-1.16.33-1.61.22-.45.53-.83.92-1.12.39-.3.85-.52,1.36-.67.51-.15,1.06-.22,1.63-.22.28,0,.55,0,.81.02.26.02.59.04.99.07.34.03.64.05.91.07.27.01.48.02.64.02.83,0,1.43-.04,1.8-.11-.02.07-.03.15-.03.23,0,.08-.01.16-.01.23s0,.15.01.23c0,.08.02.16.03.23-.43-.03-.85-.06-1.26-.1-.41-.04-.81-.06-1.21-.08l-.04.04c.46.25.83.64,1.11,1.17.28.53.42,1.07.42,1.63,0,1.11-.38,1.98-1.12,2.61-.75.63-1.75.94-3.01.94-.21,0-.41,0-.61-.02-.2-.01-.4-.02-.61-.02-.27,0-.51.1-.74.29-.23.19-.34.44-.34.73,0,.39.09.67.28.84s.53.27,1.03.29c.41.02.82.03,1.22.03.4,0,.81.02,1.22.03.68.01,1.26.1,1.74.24.48.15.87.35,1.18.6.3.25.53.54.67.87.14.33.21.68.21,1.07,0,.52-.1,1.04-.3,1.58-.2.53-.51,1.01-.93,1.44-.42.43-.96.79-1.63,1.07-.67.28-1.46.42-2.4.42-1.44,0-2.57-.29-3.4-.86s-1.24-1.35-1.24-2.34c0-.39.07-.74.21-1.07.14-.33.32-.62.54-.87.22-.25.47-.45.76-.6s.57-.26.87-.33v-.04c-.46-.13-.81-.36-1.04-.67-.24-.31-.36-.68-.36-1.11,0-.25.05-.48.14-.69.1-.21.22-.39.37-.56s.32-.3.51-.4c.19-.1.38-.17.55-.2v-.04c-.68-.3-1.21-.71-1.6-1.25s-.58-1.22-.58-2.03Zm7.89,9.51c0-.89-.26-1.51-.78-1.87-.52-.36-1.38-.53-2.58-.53-1.11,0-1.97.18-2.58.54s-.91,1.02-.91,1.97c0,.5.09.93.26,1.29s.4.64.69.87c.29.22.63.38,1.03.49.4.1.83.16,1.29.16s.88-.06,1.31-.18c.43-.12.81-.3,1.14-.53.33-.24.6-.54.81-.9.21-.36.31-.8.31-1.3Zm-1.2-9.62c0-.93-.22-1.64-.67-2.13-.44-.49-1.03-.73-1.75-.73-.8,0-1.42.27-1.87.81-.44.54-.67,1.26-.67,2.17s.2,1.67.61,2.21c.41.54,1.04.81,1.9.81.43,0,.8-.08,1.1-.25.3-.17.56-.4.76-.69.2-.29.35-.62.45-1,.1-.38.14-.77.14-1.19Z" fill="#fff" stroke-width="0"/><path d="m316.33,463.45c-.16-.4-.38-.92-.63-1.56-.26-.64-.54-1.31-.83-2.01-.3-.7-.6-1.42-.91-2.16-.31-.73-.6-1.42-.88-2.07-.27-.64-.51-1.21-.72-1.7-.21-.49-.36-.85-.46-1.09.19.03.37.06.53.08.16.02.32.03.49.03s.33-.01.49-.03c.16-.02.34-.05.53-.08.46,1.42.97,2.83,1.53,4.22s1.16,2.83,1.78,4.31c.62-1.3,1.22-2.7,1.79-4.18.57-1.48,1.08-2.93,1.52-4.35.3.07.54.11.73.11s.44-.04.73-.11c-.1.21-.27.56-.5,1.06s-.5,1.09-.82,1.78-.67,1.45-1.04,2.29c-.38.84-.76,1.7-1.15,2.58-.39.88-.78,1.75-1.17,2.62-.39.87-.74,1.69-1.07,2.47-.33.78-.61,1.48-.86,2.11-.25.63-.43,1.13-.54,1.5-.3-.07-.55-.11-.76-.11s-.46.04-.76.11c1.17-1.94,2.16-3.88,2.98-5.82Z" fill="#fff" stroke-width="0"/><path d="m322.88,458.18c0-1.01.16-1.86.48-2.57.32-.7.74-1.27,1.26-1.71.52-.44,1.1-.76,1.74-.96.64-.2,1.29-.3,1.92-.3s1.29.1,1.93.3c.64.2,1.21.52,1.73.96.52.44.94,1.01,1.26,1.71.32.7.48,1.56.48,2.57s-.16,1.86-.48,2.57c-.32.7-.74,1.27-1.26,1.71-.52.44-1.1.74-1.73.92s-1.28.27-1.93.27-1.28-.09-1.92-.27-1.23-.49-1.74-.92c-.52-.44-.94-1.01-1.26-1.71-.32-.7-.48-1.56-.48-2.57Zm1.96,0c0,.62.06,1.22.17,1.8.11.58.3,1.09.57,1.54.27.45.62.81,1.07,1.08.44.27.99.4,1.64.4s1.2-.13,1.64-.4c.44-.27.8-.62,1.07-1.08.27-.45.46-.97.57-1.54.11-.58.17-1.18.17-1.8s-.05-1.22-.17-1.8c-.11-.58-.3-1.09-.57-1.54-.27-.45-.62-.81-1.07-1.08-.45-.27-.99-.4-1.64-.4s-1.2.13-1.64.4c-.45.27-.8.63-1.07,1.08-.27.45-.46.97-.57,1.54-.11.58-.17,1.18-.17,1.8Z" fill="#fff" stroke-width="0"/><path d="m336.15,460.07c0-.79.01-1.46.03-2.01.02-.56.03-1.11.03-1.66,0-.52,0-1.08-.01-1.69,0-.61-.02-1.22-.03-1.84.37.07.68.11.93.11.24,0,.54-.04.91-.11-.07.89-.13,1.86-.17,2.92-.04,1.06-.05,2.14-.05,3.25,0,.77.07,1.36.2,1.77s.3.71.49.92c.21.24.47.43.79.59s.69.23,1.12.23c.62,0,1.14-.14,1.55-.41.41-.27.72-.61.91-1.01.1-.25.19-.47.25-.64.06-.18.11-.41.14-.71.04-.3.06-.7.07-1.2,0-.5,0-1.19,0-2.07v-1.87c0-.33,0-.64,0-.93,0-.3-.02-.58-.03-.84.16.03.32.06.46.08.15.02.3.03.47.03s.32-.01.47-.03c.15-.02.3-.05.45-.08-.07,1.16-.12,2.27-.13,3.34-.01,1.07-.02,2.21-.02,3.41,0,.67,0,1.32.02,1.96.02.64.04,1.25.07,1.84-.3-.03-.59-.04-.87-.04s-.57.01-.87.04c.02-.13.03-.27.03-.42,0-.15.01-.3.01-.47v-.96h-.04c-.38.71-.88,1.23-1.49,1.57s-1.27.5-1.98.5c-1.16,0-2.06-.31-2.72-.92-.66-.62-.99-1.5-.99-2.66Z" fill="#fff" stroke-width="0"/><path d="m353.16,454.45c-.21-.07-.43-.11-.65-.11-.36,0-.68.08-.96.24s-.52.38-.71.66c-.19.27-.34.6-.44.98s-.16.78-.16,1.21v2.44c0,.99,0,1.75.01,2.28,0,.53.03.95.08,1.28-.3-.03-.59-.04-.89-.04-.33,0-.64.01-.93.04.04-.5.07-1.19.08-2.05,0-.87,0-1.93,0-3.19v-.71c0-.58,0-1.24,0-2,0-.76-.03-1.62-.08-2.6.16.03.32.06.47.08.15.02.3.03.47.03.13,0,.27-.01.42-.03.15-.02.3-.05.47-.08-.06.53-.09.96-.1,1.27,0,.31,0,.61,0,.89l.04.02c.87-1.6,1.85-2.4,2.93-2.4.13,0,.25,0,.34.02.1.02.22.05.37.11-.07.18-.12.45-.13.81-.02.36-.02.69-.02.99l-.16.11c-.07-.09-.22-.17-.43-.25Z" fill="#fff" stroke-width="0"/><path d="m362.34,449.01c0-.31.11-.58.33-.8.22-.22.49-.33.8-.33s.58.11.8.33c.22.22.33.49.33.8s-.11.58-.33.8c-.22.22-.49.33-.8.33s-.58-.11-.8-.33c-.22-.22-.33-.49-.33-.8Zm.31,8.02c0-.67-.01-1.37-.03-2.1-.02-.73-.07-1.42-.14-2.06.41.07.75.11,1,.11s.58-.04,1-.11c-.07.64-.12,1.32-.14,2.06-.02.73-.03,1.43-.03,2.1v2.31c0,.67.01,1.37.03,2.1.02.73.07,1.4.14,1.99-.34-.03-.67-.04-1-.04s-.66.01-1,.04c.07-.59.12-1.25.14-1.99.02-.73.03-1.43.03-2.1v-2.31Z" fill="#fff" stroke-width="0"/><path d="m375.76,461.32c-.12.24-.28.49-.48.77-.2.27-.45.53-.76.77s-.66.43-1.08.58c-.41.15-.9.22-1.44.22s-1.12-.1-1.66-.29-1.02-.51-1.44-.94c-.42-.44-.76-1-1.02-1.69-.26-.69-.39-1.51-.39-2.48s.14-1.77.42-2.47.65-1.28,1.1-1.74c.45-.47.96-.81,1.53-1.04.57-.23,1.14-.34,1.72-.34,1.64,0,2.79.74,3.42,2.22h.04v-2.18c0-.56,0-1.13-.01-1.7s-.01-1.12-.02-1.63c0-.52-.02-1.01-.02-1.47,0-.46-.02-.87-.03-1.22.18.03.35.06.51.08.16.02.33.03.49.03s.32-.01.48-.03.33-.05.52-.08c-.04.47-.08,1.16-.11,2.06-.03.9-.05,1.88-.08,2.97-.02,1.08-.04,2.19-.06,3.33-.01,1.14-.02,2.19-.02,3.13,0,1.02,0,1.94.02,2.75.02.82.03,1.65.04,2.51-.3-.03-.59-.04-.87-.04-.27,0-.55.01-.84.04l.07-2.11h-.04Zm-6.31-2.93c0,.89.09,1.62.28,2.2s.42,1.04.71,1.39c.29.35.62.59.99.72.37.13.73.2,1.09.2.58,0,1.07-.14,1.49-.43.41-.29.76-.67,1.03-1.13.27-.47.47-1,.6-1.59.12-.59.19-1.18.19-1.78,0-1.42-.28-2.51-.82-3.25-.55-.75-1.36-1.12-2.42-1.12-.53,0-1,.12-1.39.37-.39.24-.72.58-.98,1.02-.26.44-.45.95-.58,1.53-.12.58-.19,1.21-.19,1.88Z" fill="#fff" stroke-width="0"/><path d="m379.7,458.49c0-1.82.43-3.25,1.3-4.29.87-1.04,2.13-1.55,3.79-1.55.79,0,1.46.12,2.03.37s1.05.57,1.43.98c.38.41.67.89.86,1.43.18.55.28,1.13.28,1.75,0,.15,0,.29-.01.43s-.02.29-.03.43c-.8-.01-1.59-.03-2.38-.04s-1.58-.02-2.38-.02c-.49,0-.97,0-1.46.02-.48.01-.96.03-1.46.04-.01.07-.02.19-.02.33v.29c0,.58.09,1.12.26,1.62.17.5.42.94.74,1.3.33.36.72.65,1.2.87s1.02.32,1.64.32c.3,0,.6-.04.91-.12.31-.08.62-.19.91-.33.29-.14.57-.31.83-.5.26-.19.49-.4.68-.62l.11.07-.13,1.09c-.44.36-1,.66-1.65.91-.66.25-1.35.38-2.06.38-.8,0-1.53-.12-2.19-.37-.66-.24-1.23-.6-1.71-1.07-.48-.47-.85-1.02-1.11-1.66-.26-.64-.39-1.33-.39-2.07Zm5.13-5.13c-.55,0-1.01.13-1.39.38-.38.25-.69.57-.93.94-.24.38-.43.79-.55,1.24-.13.45-.21.88-.23,1.28.46.01.94.03,1.43.04s.98.02,1.46.02.98,0,1.49-.02.99-.03,1.47-.04c0-.4-.03-.82-.1-1.27s-.2-.86-.4-1.24c-.2-.39-.48-.7-.83-.96-.36-.25-.82-.38-1.4-.38Z" fill="#fff" stroke-width="0"/><path d="m391.94,453.94c.67-.5,1.28-.84,1.84-1.02s1.14-.27,1.73-.27c.53,0,1.02.08,1.46.23.45.16.82.38,1.13.67.31.29.55.64.73,1.04.18.41.27.86.27,1.34,0,.84-.02,1.68-.04,2.52-.03.84-.04,1.72-.04,2.66,0,.18,0,.37.01.57,0,.2.04.38.1.53.06.16.14.29.26.39.11.1.28.16.5.16.07,0,.15,0,.23-.01.08,0,.16-.03.23-.08v.49c-.16.07-.37.13-.61.18-.24.04-.52.07-.81.07-.47,0-.84-.12-1.09-.37s-.4-.56-.44-.94c-.53.53-1.06.93-1.58,1.18-.52.25-1.16.38-1.91.38-.37,0-.73-.05-1.09-.16-.36-.1-.67-.27-.94-.51-.28-.24-.5-.52-.67-.86-.17-.33-.25-.71-.25-1.14,0-.89.28-1.58.83-2.07.56-.49,1.32-.81,2.3-.98.8-.13,1.42-.25,1.88-.34.45-.1.79-.2,1-.3s.34-.23.39-.37c.04-.14.07-.32.07-.54,0-.37-.04-.73-.13-1.07-.09-.34-.23-.64-.42-.89-.19-.25-.45-.46-.76-.61s-.69-.23-1.13-.23c-.59,0-1.14.13-1.66.4s-.89.64-1.14,1.11h-.24v-1.16Zm5.49,3.96c-.25.09-.54.16-.88.22-.33.06-.67.12-1.01.19-.34.07-.68.15-1.01.26-.33.1-.63.24-.89.42-.26.18-.47.4-.62.67-.16.27-.23.61-.23,1.02,0,.7.2,1.22.6,1.58.4.36.84.53,1.33.53.56,0,1.08-.16,1.54-.47.47-.31.82-.67,1.08-1.09l.09-3.33Z" fill="#fff" stroke-width="0"/><path d="m403.06,461.85c.15.18.34.34.55.5s.46.29.73.39c.27.1.57.16.88.16.28,0,.55-.04.81-.13s.49-.21.69-.38c.2-.16.36-.37.48-.62.12-.25.18-.54.18-.87,0-.46-.13-.81-.39-1.06-.26-.24-.58-.44-.97-.6-.38-.16-.81-.29-1.27-.41-.46-.12-.88-.29-1.27-.5-.39-.21-.71-.5-.97-.86-.26-.36-.39-.84-.39-1.47,0-.49.08-.94.24-1.34.16-.41.4-.76.71-1.06s.7-.53,1.15-.7c.46-.17.99-.25,1.58-.25.55,0,1.01.07,1.39.22.38.15.74.28,1.08.4-.12.22-.23.5-.33.82-.1.33-.17.58-.2.76h-.27c-.12-.36-.35-.67-.69-.96-.34-.28-.76-.42-1.27-.42-.22,0-.44.04-.67.11s-.42.19-.6.33c-.18.15-.33.34-.45.58-.12.24-.18.52-.18.84,0,.47.13.84.39,1.1.26.26.58.46.97.61.38.15.81.28,1.27.39.46.11.88.27,1.27.47.38.2.71.48.97.83.26.36.39.84.39,1.47,0,.43-.09.85-.28,1.27-.19.42-.45.79-.8,1.12s-.77.59-1.26.78c-.49.19-1.04.28-1.67.28-.68,0-1.25-.07-1.71-.2s-.84-.29-1.15-.47c.09-.19.18-.46.28-.79.1-.33.14-.61.14-.83h.27c.07.15.19.31.35.49Z" fill="#fff" stroke-width="0"/><path d="m417.87,453.94c.67-.5,1.28-.84,1.84-1.02.56-.18,1.14-.27,1.73-.27.53,0,1.02.08,1.47.23.44.16.82.38,1.13.67s.56.64.73,1.04c.18.41.27.86.27,1.34,0,.84-.02,1.68-.04,2.52s-.04,1.72-.04,2.66c0,.18,0,.37,0,.57s.04.38.1.53c.06.16.14.29.26.39.11.1.28.16.5.16.07,0,.15,0,.23-.01.08,0,.16-.03.23-.08v.49c-.16.07-.37.13-.61.18-.24.04-.51.07-.81.07-.47,0-.84-.12-1.09-.37-.25-.24-.4-.56-.45-.94-.53.53-1.06.93-1.58,1.18-.52.25-1.15.38-1.91.38-.37,0-.73-.05-1.09-.16-.36-.1-.67-.27-.95-.51-.27-.24-.5-.52-.67-.86-.17-.33-.26-.71-.26-1.14,0-.89.28-1.58.83-2.07.55-.49,1.32-.81,2.3-.98.8-.13,1.43-.25,1.88-.34.45-.1.79-.2,1-.3s.35-.23.39-.37c.04-.14.07-.32.07-.54,0-.37-.04-.73-.13-1.07-.09-.34-.23-.64-.42-.89s-.44-.46-.76-.61c-.31-.16-.69-.23-1.13-.23-.59,0-1.14.13-1.65.4-.51.27-.89.64-1.14,1.11h-.24v-1.16Zm5.49,3.96c-.25.09-.54.16-.88.22-.33.06-.67.12-1.01.19-.34.07-.68.15-1.01.26s-.63.24-.89.42c-.26.18-.47.4-.62.67-.15.27-.23.61-.23,1.02,0,.7.2,1.22.6,1.58s.84.53,1.33.53c.56,0,1.08-.16,1.54-.47.47-.31.83-.67,1.08-1.09l.09-3.33Z" fill="#fff" stroke-width="0"/><path d="m435.35,454.66c-.43-.57-1.02-.86-1.78-.86-1.04,0-1.79.32-2.28.96-.48.64-.72,1.53-.72,2.69v1.89c0,.67,0,1.37.03,2.1.02.73.07,1.4.14,1.99-.34-.03-.68-.04-1-.04s-.66.01-1,.04c.07-.59.12-1.25.14-1.99.02-.73.03-1.43.03-2.1v-2.31c0-.67-.01-1.37-.03-2.1-.02-.73-.07-1.42-.14-2.06.41.07.75.11,1,.11.12,0,.25-.01.39-.03.14-.02.31-.05.5-.08-.04.59-.07,1.19-.07,1.78h.04c.42-.64.91-1.13,1.49-1.48.58-.35,1.27-.52,2.07-.52.41,0,.83.06,1.25.18.42.12.8.32,1.14.61.34.29.62.68.83,1.18s.32,1.13.32,1.9c0,.64-.02,1.29-.04,1.97s-.04,1.39-.04,2.14v1.44c0,.24,0,.47.01.7s.02.45.03.66c-.3-.03-.61-.04-.93-.04s-.62.01-.91.04c.03-.77.06-1.56.1-2.38s.05-1.65.05-2.51v-1.36c0-1.11-.21-1.95-.64-2.52Z" fill="#fff" stroke-width="0"/><path d="m448.62,461.32c-.12.24-.28.49-.48.77-.2.27-.45.53-.75.77-.3.24-.66.43-1.08.58-.42.15-.9.22-1.45.22s-1.11-.1-1.65-.29-1.02-.51-1.45-.94c-.42-.44-.76-1-1.02-1.69s-.39-1.51-.39-2.48.14-1.77.42-2.47.65-1.28,1.1-1.74c.45-.47.96-.81,1.53-1.04.57-.23,1.14-.34,1.72-.34,1.64,0,2.79.74,3.42,2.22h.04v-2.18c0-.56,0-1.13-.01-1.7s-.02-1.12-.02-1.63c0-.52-.01-1.01-.02-1.47s-.02-.87-.03-1.22c.18.03.35.06.51.08.16.02.32.03.49.03s.32-.01.48-.03c.15-.02.33-.05.52-.08-.04.47-.08,1.16-.11,2.06s-.05,1.88-.08,2.97c-.02,1.08-.04,2.19-.05,3.33-.02,1.14-.02,2.19-.02,3.13,0,1.02,0,1.94.02,2.75.01.82.03,1.65.04,2.51-.29-.03-.58-.04-.87-.04s-.55.01-.84.04l.07-2.11h-.04Zm-6.31-2.93c0,.89.09,1.62.28,2.2s.42,1.04.71,1.39c.29.35.62.59.99.72.37.13.73.2,1.09.2.58,0,1.07-.14,1.49-.43.41-.29.76-.67,1.03-1.13s.47-1,.6-1.59c.13-.59.19-1.18.19-1.78,0-1.42-.27-2.51-.82-3.25s-1.36-1.12-2.42-1.12c-.53,0-1,.12-1.39.37-.39.24-.72.58-.98,1.02-.26.44-.45.95-.58,1.53-.13.58-.19,1.21-.19,1.88Z" fill="#fff" stroke-width="0"/><path d="m467.15,461.32c-.12.24-.28.49-.48.77-.2.27-.45.53-.76.77s-.66.43-1.08.58c-.41.15-.9.22-1.44.22s-1.12-.1-1.66-.29-1.02-.51-1.44-.94c-.42-.44-.76-1-1.02-1.69-.26-.69-.39-1.51-.39-2.48s.14-1.77.42-2.47.65-1.28,1.1-1.74c.45-.47.96-.81,1.53-1.04.57-.23,1.14-.34,1.72-.34,1.64,0,2.79.74,3.42,2.22h.04v-2.18c0-.56,0-1.13-.01-1.7s-.01-1.12-.02-1.63c0-.52-.02-1.01-.02-1.47,0-.46-.02-.87-.03-1.22.18.03.35.06.51.08.16.02.33.03.49.03s.32-.01.48-.03.33-.05.52-.08c-.04.47-.08,1.16-.11,2.06-.03.9-.05,1.88-.08,2.97-.02,1.08-.04,2.19-.06,3.33-.01,1.14-.02,2.19-.02,3.13,0,1.02,0,1.94.02,2.75.02.82.03,1.65.04,2.51-.3-.03-.59-.04-.87-.04-.27,0-.55.01-.84.04l.07-2.11h-.04Zm-6.31-2.93c0,.89.09,1.62.28,2.2s.42,1.04.71,1.39c.29.35.62.59.99.72.37.13.73.2,1.09.2.58,0,1.07-.14,1.49-.43.41-.29.76-.67,1.03-1.13.27-.47.47-1,.6-1.59.12-.59.19-1.18.19-1.78,0-1.42-.28-2.51-.82-3.25-.55-.75-1.36-1.12-2.42-1.12-.53,0-1,.12-1.39.37-.39.24-.72.58-.98,1.02-.26.44-.45.95-.58,1.53-.12.58-.19,1.21-.19,1.88Z" fill="#fff" stroke-width="0"/><path d="m476.65,454.45c-.21-.07-.43-.11-.66-.11-.36,0-.67.08-.96.24s-.52.38-.71.66c-.19.27-.34.6-.45.98s-.15.78-.15,1.21v2.44c0,.99,0,1.75,0,2.28,0,.53.03.95.08,1.28-.3-.03-.59-.04-.89-.04-.33,0-.64.01-.93.04.04-.5.07-1.19.08-2.05,0-.87.01-1.93.01-3.19v-.71c0-.58,0-1.24-.01-2s-.03-1.62-.08-2.6c.16.03.32.06.47.08.15.02.3.03.47.03.13,0,.27-.01.42-.03.15-.02.3-.05.47-.08-.06.53-.09.96-.1,1.27,0,.31-.01.61-.01.89l.04.02c.87-1.6,1.85-2.4,2.93-2.4.13,0,.25,0,.34.02.1.02.22.05.37.11-.07.18-.12.45-.13.81-.01.36-.02.69-.02.99l-.16.11c-.07-.09-.22-.17-.43-.25Z" fill="#fff" stroke-width="0"/><path d="m478.48,458.49c0-1.82.43-3.25,1.3-4.29.87-1.04,2.13-1.55,3.79-1.55.78,0,1.46.12,2.03.37s1.05.57,1.43.98.67.89.86,1.43.28,1.13.28,1.75c0,.15,0,.29,0,.43,0,.14-.02.29-.03.43-.8-.01-1.59-.03-2.38-.04s-1.58-.02-2.38-.02c-.49,0-.97,0-1.46.02-.48.01-.97.03-1.46.04-.02.07-.02.19-.02.33v.29c0,.58.09,1.12.26,1.62.17.5.42.94.74,1.3.33.36.73.65,1.2.87.47.21,1.02.32,1.64.32.29,0,.6-.04.91-.12.31-.08.62-.19.91-.33.3-.14.57-.31.83-.5s.48-.4.68-.62l.11.07-.13,1.09c-.45.36-1,.66-1.66.91s-1.34.38-2.05.38c-.8,0-1.53-.12-2.19-.37-.66-.24-1.23-.6-1.71-1.07-.48-.47-.85-1.02-1.11-1.66-.26-.64-.39-1.33-.39-2.07Zm5.13-5.13c-.55,0-1.01.13-1.39.38-.38.25-.69.57-.93.94-.24.38-.43.79-.55,1.24-.12.45-.2.88-.23,1.28.46.01.94.03,1.43.04s.98.02,1.46.02.98,0,1.49-.02c.5-.01.99-.03,1.47-.04,0-.4-.04-.82-.1-1.27s-.2-.86-.4-1.24c-.2-.39-.48-.7-.83-.96-.36-.25-.82-.38-1.4-.38Z" fill="#fff" stroke-width="0"/><path d="m490.72,453.94c.67-.5,1.28-.84,1.84-1.02.56-.18,1.14-.27,1.73-.27.53,0,1.02.08,1.47.23.44.16.82.38,1.13.67s.56.64.73,1.04c.18.41.27.86.27,1.34,0,.84-.02,1.68-.04,2.52s-.04,1.72-.04,2.66c0,.18,0,.37,0,.57s.04.38.1.53c.06.16.14.29.26.39.11.1.28.16.5.16.07,0,.15,0,.23-.01.08,0,.16-.03.23-.08v.49c-.16.07-.37.13-.61.18-.24.04-.51.07-.81.07-.47,0-.84-.12-1.09-.37-.25-.24-.4-.56-.45-.94-.53.53-1.06.93-1.58,1.18-.52.25-1.15.38-1.91.38-.37,0-.73-.05-1.09-.16-.36-.1-.67-.27-.95-.51-.27-.24-.5-.52-.67-.86-.17-.33-.26-.71-.26-1.14,0-.89.28-1.58.83-2.07.55-.49,1.32-.81,2.3-.98.8-.13,1.43-.25,1.88-.34.45-.1.79-.2,1-.3s.35-.23.39-.37c.04-.14.07-.32.07-.54,0-.37-.04-.73-.13-1.07-.09-.34-.23-.64-.42-.89s-.44-.46-.76-.61c-.31-.16-.69-.23-1.13-.23-.59,0-1.14.13-1.65.4-.51.27-.89.64-1.14,1.11h-.24v-1.16Zm5.49,3.96c-.25.09-.54.16-.88.22-.33.06-.67.12-1.01.19-.34.07-.68.15-1.01.26s-.63.24-.89.42c-.26.18-.47.4-.62.67-.15.27-.23.61-.23,1.02,0,.7.2,1.22.6,1.58s.84.53,1.33.53c.56,0,1.08-.16,1.54-.47.47-.31.83-.67,1.08-1.09l.09-3.33Z" fill="#fff" stroke-width="0"/><path d="m501.62,454.93c-.02-.73-.07-1.42-.14-2.06.41.07.75.11,1,.11.12,0,.25-.01.39-.03.14-.02.31-.05.5-.08-.04.59-.07,1.19-.07,1.78h.04c.79-1.33,1.89-2,3.31-2,.37,0,.73.05,1.09.17s.68.26.96.46c.29.19.54.43.75.7.21.27.35.57.42.88h.04c.36-.71.84-1.25,1.46-1.63.61-.38,1.32-.57,2.12-.57.49,0,.94.07,1.36.2.41.13.77.34,1.08.62.3.28.54.64.71,1.09.17.44.25.98.25,1.6,0,.25,0,.53-.02.82-.02.3-.03.64-.04,1.03-.01.39-.03.84-.04,1.33-.02.5-.02,1.07-.02,1.72,0,.4,0,.79.01,1.16s.03.77.05,1.2c-.16-.03-.33-.04-.49-.04h-.96c-.16,0-.33.01-.49.04.04-.37.09-1.12.14-2.24.05-1.12.08-2.7.08-4.71,0-.37-.04-.72-.12-1.04-.08-.33-.21-.61-.39-.84-.18-.24-.42-.43-.71-.57-.3-.14-.67-.21-1.11-.21-.53,0-.99.1-1.36.31-.37.21-.66.45-.87.73-.12.16-.21.33-.28.49s-.12.41-.15.74c-.04.33-.06.8-.08,1.4-.02.6-.02,1.43-.02,2.48,0,.64.01,1.22.03,1.74.02.53.05,1.1.08,1.72-.34-.03-.67-.04-.98-.04s-.64.01-.98.04c.07-.81.12-1.64.16-2.49.03-.84.04-1.67.04-2.49,0-.7,0-1.24,0-1.63s-.03-.7-.06-.93-.07-.42-.12-.57c-.05-.15-.12-.31-.21-.49-.16-.28-.42-.52-.77-.72s-.71-.3-1.08-.3c-.98,0-1.7.32-2.16.96s-.69,1.53-.69,2.69v1.89c0,.67.01,1.37.03,2.1.02.73.07,1.4.14,1.99-.34-.03-.67-.04-1-.04s-.66.01-1,.04c.07-.59.12-1.25.14-1.99.02-.73.03-1.43.03-2.1v-2.31c0-.67-.01-1.37-.03-2.1Z" fill="#fff" stroke-width="0"/><path d="m520.35,461.85c.16.18.34.34.56.5s.46.29.73.39.57.16.88.16c.28,0,.55-.04.81-.13.26-.09.49-.21.69-.38.2-.16.36-.37.48-.62s.18-.54.18-.87c0-.46-.13-.81-.39-1.06-.26-.24-.58-.44-.97-.6-.38-.16-.81-.29-1.27-.41-.46-.12-.88-.29-1.27-.5s-.71-.5-.97-.86-.39-.84-.39-1.47c0-.49.08-.94.24-1.34.16-.41.4-.76.71-1.06.31-.3.7-.53,1.16-.7.46-.17.98-.25,1.58-.25.55,0,1.01.07,1.39.22.38.15.74.28,1.08.4-.12.22-.23.5-.33.82-.1.33-.17.58-.2.76h-.27c-.12-.36-.35-.67-.69-.96s-.76-.42-1.27-.42c-.22,0-.45.04-.67.11-.22.07-.42.19-.6.33-.18.15-.33.34-.44.58-.12.24-.18.52-.18.84,0,.47.13.84.39,1.1.26.26.58.46.97.61.38.15.81.28,1.27.39.46.11.88.27,1.27.47.38.2.71.48.96.83.26.36.39.84.39,1.47,0,.43-.09.85-.28,1.27-.19.42-.45.79-.8,1.12-.35.33-.77.59-1.26.78-.49.19-1.04.28-1.67.28-.68,0-1.25-.07-1.71-.2s-.84-.29-1.16-.47c.09-.19.18-.46.28-.79.1-.33.14-.61.14-.83h.27c.07.15.19.31.34.49Z" fill="#fff" stroke-width="0"/><path d="m98.02,379.36h6.52l20-53.03h1.78l20.15,53.03h6.59v1.04h-22.81v-1.04h8.22l-7.78-20.59h-17.18l-7.78,20.59h8.22v1.04h-15.93v-1.04Zm24.07-43.18l-8.15,21.55h16.29l-8.15-21.55Z" fill="#fff" stroke-width="0"/><path d="m193.79,380.4h-11.93v-7.48h-.15c-.45.99-.98,1.99-1.59,3-.62,1.01-1.38,1.93-2.3,2.74s-1.98,1.48-3.18,2c-1.21.52-2.63.78-4.26.78-1.98,0-3.58-.22-4.81-.67-1.24-.44-2.2-.91-2.89-1.41-.35-.25-.73-.56-1.15-.93-.42-.37-.8-.88-1.15-1.52-.35-.64-.64-1.47-.89-2.48-.25-1.01-.37-2.26-.37-3.74v-21.04h-5.7v-1.04h12.07v22.74c0,1.28.08,2.47.26,3.56.17,1.09.51,2.04,1,2.85.49.81,1.14,1.46,1.93,1.93.79.47,1.83.7,3.11.7,1.08,0,2.21-.32,3.37-.96,1.16-.64,2.22-1.56,3.18-2.74s1.77-2.6,2.41-4.26c.64-1.65.96-3.52.96-5.59v-17.18h-5.63v-1.04h12v30.74h5.7v1.04Z" fill="#fff" stroke-width="0"/><path d="m197.42,379.36h5.7v-29.7h-5.7v-1.04h11.93v7.93h.15c.3-.64.73-1.46,1.3-2.44.57-.99,1.34-1.95,2.33-2.89.99-.94,2.22-1.74,3.7-2.41s3.28-1,5.41-1c3.26,0,5.91.79,7.96,2.37,2.05,1.58,3.07,4.1,3.07,7.56v21.63h5.7v1.04h-17.78v-1.04h5.7v-23.92c0-1.93-.46-3.51-1.37-4.74-.91-1.23-2.33-1.85-4.26-1.85-1.58,0-3.09.35-4.52,1.04-1.43.69-2.69,1.65-3.78,2.89-1.09,1.23-1.94,2.69-2.55,4.37-.62,1.68-.93,3.51-.93,5.48v16.74h5.7v1.04h-17.78v-1.04Z" fill="#fff" stroke-width="0"/><path d="m242.09,348.62h5.7v-9.56c.39.15.76.27,1.11.37.35.1.94.15,1.78.15.74,0,1.38-.09,1.93-.26.54-.17,1.06-.46,1.56-.85v10.15h10.52v1.04h-10.52v24.22c0,1.38.13,2.51.41,3.37.27.86.63,1.53,1.07,2,.44.47.93.78,1.44.93s1.02.22,1.52.22c1.73,0,3.12-.63,4.18-1.89,1.06-1.26,1.74-2.7,2.04-4.33l1.04.37c-.15.64-.37,1.36-.67,2.15-.3.79-.75,1.54-1.37,2.26-.62.72-1.42,1.31-2.41,1.78-.99.47-2.22.7-3.7.7-3.7,0-6.28-.72-7.74-2.15-1.46-1.43-2.18-3.46-2.18-6.07v-23.55h-5.7v-1.04Z" fill="#fff" stroke-width="0"/><path d="m267.57,379.36h5.7v-29.7h-5.7v-1.04h12.07v30.74h5.7v1.04h-17.78v-1.04Zm4.81-48c0-1.09.38-2.01,1.15-2.78.76-.77,1.69-1.15,2.78-1.15s2.01.38,2.78,1.15c.77.77,1.15,1.69,1.15,2.78s-.38,2.01-1.15,2.78c-.77.77-1.69,1.15-2.78,1.15s-2.01-.38-2.78-1.15c-.77-.77-1.15-1.69-1.15-2.78Z" fill="#fff" stroke-width="0"/><path d="m298.23,362.03c0,.49-.01,1-.04,1.52-.03.52-.04,1.17-.04,1.96,0,1.63.1,3.33.3,5.11s.63,3.38,1.3,4.81c.67,1.43,1.65,2.62,2.96,3.56,1.31.94,3.05,1.41,5.22,1.41s3.96-.32,5.37-.96c1.41-.64,2.52-1.42,3.33-2.33.82-.91,1.42-1.84,1.82-2.78.39-.94.69-1.7.89-2.3l1.11.22c-.15.54-.43,1.32-.85,2.33-.42,1.01-1.09,2.03-2,3.04-.91,1.01-2.15,1.9-3.7,2.67-1.56.77-3.57,1.15-6.04,1.15s-4.75-.4-6.85-1.19c-2.1-.79-3.91-1.93-5.44-3.41-1.53-1.48-2.72-3.25-3.55-5.3-.84-2.05-1.26-4.33-1.26-6.85,0-2.17.43-4.28,1.3-6.33.86-2.05,2.05-3.86,3.55-5.44,1.51-1.58,3.27-2.85,5.3-3.81,2.02-.96,4.2-1.44,6.52-1.44,1.38,0,2.86.25,4.44.74,1.58.49,3.05,1.3,4.41,2.41,1.36,1.11,2.49,2.58,3.41,4.41.91,1.83,1.37,4.1,1.37,6.81h-22.81Zm15.26-1.04c.1-.69.15-1.33.15-1.93v-1.85c0-1.68-.16-3.06-.48-4.15-.32-1.09-.77-1.95-1.33-2.59-.57-.64-1.26-1.1-2.07-1.37-.81-.27-1.69-.41-2.63-.41-1.68,0-3.06.33-4.15,1-1.09.67-1.95,1.57-2.59,2.7-.64,1.14-1.12,2.44-1.45,3.93s-.53,3.04-.63,4.67h15.18Z" fill="#fff" stroke-width="0"/><path d="m405.44,379.36h8.22v-50.66h-8.22v-1.04h23.85v1.04h-8.22v50.66h8.22v1.04h-23.85v-1.04Z" fill="#fff" stroke-width="0"/><path d="m435.88,370.03h.81c.34,1.19.79,2.38,1.33,3.59.54,1.21,1.27,2.32,2.19,3.33.91,1.01,2.04,1.84,3.37,2.48,1.33.64,2.94.96,4.81.96,1.58,0,2.99-.48,4.22-1.44s1.85-2.53,1.85-4.7c0-1.88-.48-3.2-1.45-3.96-.96-.76-2.09-1.37-3.37-1.81l-5.78-2c-.74-.25-1.54-.56-2.41-.93-.86-.37-1.67-.89-2.41-1.56s-1.35-1.52-1.81-2.56c-.47-1.04-.7-2.37-.7-4,0-1.38.27-2.67.81-3.85.54-1.19,1.28-2.22,2.22-3.11.94-.89,2.06-1.58,3.37-2.07,1.31-.49,2.73-.74,4.26-.74,1.09,0,1.96.09,2.63.26.67.17,1.25.35,1.74.52.49.17.94.35,1.33.52.39.17.86.26,1.41.26s.94-.2,1.18-.59h.82v8.44h-.82c-.35-1.09-.74-2.14-1.18-3.15-.44-1.01-.98-1.91-1.59-2.7-.62-.79-1.38-1.41-2.3-1.85-.91-.44-1.99-.67-3.22-.67-2.37,0-4.21.53-5.52,1.59-1.31,1.06-1.96,2.48-1.96,4.26,0,1.58.56,2.78,1.67,3.59,1.11.81,2.75,1.57,4.93,2.26l5.41,1.78c2.32.79,4.22,1.88,5.7,3.26,1.48,1.38,2.22,3.21,2.22,5.48,0,1.33-.26,2.64-.78,3.93-.52,1.28-1.29,2.41-2.3,3.37-1.01.96-2.25,1.74-3.7,2.33-1.46.59-3.12.89-5,.89-1.09,0-2.09-.11-3-.33-.91-.22-1.75-.46-2.52-.7s-1.47-.48-2.11-.7c-.64-.22-1.24-.33-1.78-.33s-.94.11-1.18.33c-.25.22-.44.46-.59.7h-.81v-10.37Z" fill="#fff" stroke-width="0"/><path d="m498.69,379.58c-.64.49-1.41.93-2.3,1.3-.89.37-1.98.56-3.26.56-2.37,0-4.09-.51-5.15-1.52-1.06-1.01-1.79-2.43-2.19-4.26h-.15c-.2.44-.47,1-.81,1.67-.35.67-.88,1.31-1.59,1.93-.72.62-1.67,1.14-2.85,1.56s-2.69.63-4.52.63c-2.07,0-3.73-.23-4.96-.7s-2.2-1.05-2.89-1.74c-.69-.69-1.15-1.47-1.37-2.33-.22-.86-.33-1.67-.33-2.41,0-1.73.34-3.11,1.04-4.15.69-1.04,1.59-1.86,2.7-2.48,1.11-.62,2.34-1.12,3.7-1.52,1.36-.39,2.73-.81,4.11-1.26,1.63-.54,2.97-1.01,4.04-1.41,1.06-.39,1.89-.88,2.48-1.44.59-.57,1-1.28,1.22-2.15.22-.86.33-2.04.33-3.52,0-1.19-.07-2.25-.22-3.19-.15-.94-.42-1.74-.81-2.41-.4-.67-.96-1.17-1.7-1.52-.74-.34-1.73-.52-2.96-.52-1.63,0-2.98.28-4.04.85-1.06.57-1.59,1.49-1.59,2.78,0,.84.07,1.67.22,2.48.15.81.22,1.42.22,1.81,0,.69-.25,1.27-.74,1.74-.49.47-1.21.7-2.15.7-1.63,0-2.64-.3-3.04-.89-.4-.59-.59-1.36-.59-2.3,0-1.09.25-2.12.74-3.11.49-.99,1.22-1.86,2.18-2.63.96-.77,2.17-1.37,3.63-1.81,1.46-.44,3.12-.67,5-.67,2.27,0,4.17.28,5.7.85,1.53.57,2.76,1.33,3.7,2.3.94.96,1.6,2.05,2,3.26.39,1.21.59,2.48.59,3.81v18.44c0,1.43.22,2.4.67,2.89.44.49,1.08.74,1.93.74.54,0,1.11-.1,1.7-.3.59-.2,1.16-.49,1.7-.89l.59.81Zm-12.96-17.33h-.15c-.1.64-.91,1.28-2.44,1.93l-5.55,2.22c-1.58.64-2.79,1.54-3.63,2.7-.84,1.16-1.26,2.61-1.26,4.33,0,.74.07,1.51.22,2.3.15.79.42,1.49.82,2.11.39.62.95,1.12,1.67,1.52.72.4,1.64.59,2.78.59,1.63,0,2.95-.35,3.96-1.04,1.01-.69,1.78-1.56,2.3-2.59.52-1.04.86-2.16,1.04-3.37.17-1.21.26-2.31.26-3.3v-7.41Z" fill="#fff" stroke-width="0"/><path d="m500.99,379.36h5.7v-51.33h-5.7v-1.04h12.07v27.55h.15c.69-1.93,1.88-3.56,3.56-4.89,1.68-1.33,3.88-2,6.59-2,2.12,0,4.12.46,6,1.37,1.88.91,3.53,2.12,4.96,3.63,1.43,1.51,2.57,3.27,3.41,5.3.84,2.03,1.26,4.15,1.26,6.37s-.43,4.43-1.3,6.48c-.87,2.05-2.04,3.86-3.52,5.44-1.48,1.58-3.2,2.84-5.15,3.78-1.95.94-4.01,1.41-6.18,1.41-1.68,0-3.1-.28-4.26-.85-1.16-.57-2.12-1.25-2.89-2.04-.77-.79-1.35-1.6-1.74-2.44-.4-.84-.69-1.56-.89-2.15h-.15v6.44h-11.92v-1.04Zm30.59-15.93c0-2.27-.12-4.31-.37-6.11-.25-1.8-.68-3.34-1.3-4.63-.62-1.28-1.48-2.27-2.59-2.96-1.11-.69-2.53-1.04-4.26-1.04-1.83,0-3.33.32-4.52.96-1.19.64-2.15,1.46-2.89,2.44-.54.69-.98,1.43-1.3,2.22-.32.79-.58,1.73-.78,2.81-.2,1.09-.33,2.33-.41,3.74s-.11,3.07-.11,5c0,1.63.12,3.31.37,5.04.25,1.73.72,3.3,1.41,4.7.69,1.41,1.67,2.56,2.93,3.44,1.26.89,2.93,1.33,5,1.33s3.63-.39,4.81-1.19c1.19-.79,2.07-1.93,2.67-3.41s.96-3.27,1.11-5.37c.15-2.1.22-4.43.22-7Z" fill="#fff" stroke-width="0"/><path d="m553.65,362.03c0,.49-.01,1-.04,1.52-.03.52-.04,1.17-.04,1.96,0,1.63.1,3.33.3,5.11s.63,3.38,1.3,4.81c.67,1.43,1.65,2.62,2.96,3.56,1.31.94,3.05,1.41,5.22,1.41s3.96-.32,5.37-.96c1.41-.64,2.52-1.42,3.33-2.33.82-.91,1.42-1.84,1.82-2.78.39-.94.69-1.7.89-2.3l1.11.22c-.15.54-.43,1.32-.85,2.33-.42,1.01-1.09,2.03-2,3.04-.91,1.01-2.15,1.9-3.7,2.67-1.56.77-3.57,1.15-6.04,1.15s-4.75-.4-6.85-1.19c-2.1-.79-3.91-1.93-5.44-3.41-1.53-1.48-2.72-3.25-3.55-5.3-.84-2.05-1.26-4.33-1.26-6.85,0-2.17.43-4.28,1.3-6.33.86-2.05,2.05-3.86,3.55-5.44,1.51-1.58,3.27-2.85,5.3-3.81,2.02-.96,4.2-1.44,6.52-1.44,1.38,0,2.86.25,4.44.74,1.58.49,3.05,1.3,4.41,2.41,1.36,1.11,2.49,2.58,3.41,4.41.91,1.83,1.37,4.1,1.37,6.81h-22.81Zm15.26-1.04c.1-.69.15-1.33.15-1.93v-1.85c0-1.68-.16-3.06-.48-4.15-.32-1.09-.77-1.95-1.33-2.59-.57-.64-1.26-1.1-2.07-1.37-.81-.27-1.69-.41-2.63-.41-1.68,0-3.06.33-4.15,1-1.09.67-1.95,1.57-2.59,2.7-.64,1.14-1.12,2.44-1.45,3.93s-.53,3.04-.63,4.67h15.18Z" fill="#fff" stroke-width="0"/><path d="m581.95,379.36h5.7v-51.33h-5.7v-1.04h12.07v52.37h5.7v1.04h-17.78v-1.04Z" fill="#fff" stroke-width="0"/><path d="m603.87,379.36h5.7v-51.33h-5.7v-1.04h12.07v52.37h5.7v1.04h-17.78v-1.04Z" fill="#fff" stroke-width="0"/><path d="m362.76,194.6c-.7,1.69-1.93,2.98-3.58,3.53-3.56,1.19-7.68-1.54-9.2-6.1-1.53-4.56.11-9.21,3.67-10.41,1.54-.52,3.18-.3,4.68.5-.85-.38-1.7-.44-2.48-.15-2.36.89-3.08,4.76-1.62,8.64,1.47,3.89,4.57,6.32,6.92,5.42.67-.25,1.21-.74,1.61-1.42Z" fill="#fff" stroke-width="0"/><path d="m319.17,161.87s-2.61,19.56,21.89,45.5c.76.81,1.96,1.03,2.97.57l3.36-1.55,4.4-2.03s-2.06-2.06-6.32-6.68c-8.86-9.6-25.14-26.95-26.3-35.8Z" fill="#fff" stroke-width="0"/><path d="m363.06,218.56s-3.73,4.43-5.54,7.36c-.66,1.07-.5,2.42.37,3.33,2.03,2.13,5.71,8.25,6.22,24.82,0,0,7.76-16.05-1.05-35.52Z" fill="#fff" stroke-width="0"/><path d="m397.96,140.18s-8.82,36.92-22.62,51.62c-.45.48-.81,1.02-1.25,1.51-3.12,3.43-5.68,5.3-14.97,10.66,0,0-15.86,7.55-20.44,12.49,0,0-7.34,6.22-14.08,16.5,0,0-24.18,41.66-25.16,44.22,0,0,12.24.49,32.07-21.42,0,0,10.52-8.85,25.99-34.74.4-.67,2.27-2.75,2.81-3.31,3.97-4.11,20.14-21.25,25.6-34.16,0,0,6.51-9.83,12.05-43.36Z" fill="#fff" stroke-width="0"/><polygon points="351.85 250.34 355.84 250.34 349.35 397.27 338.86 397.27 351.85 250.34" fill="#fff" stroke-width="0"/><polygon points="376 250.34 372.01 250.34 378.5 397.27 388.99 397.27 376 250.34" fill="#fff" stroke-width="0"/><rect x="355.02" y="254.58" width="17.47" height="1.59" fill="#fff" stroke-width="0"/><rect x="355.02" y="259.46" width="17.72" height="1.7" fill="#fff" stroke-width="0"/><rect x="354.18" y="265.15" width="19.37" height="2.17" fill="#fff" stroke-width="0"/><rect x="354.18" y="270.83" width="19.92" height="2.25" fill="#fff" stroke-width="0"/><rect x="353.11" y="285.07" width="20.99" height="2.72" fill="#fff" stroke-width="0"/><rect x="353.11" y="277.47" width="20.99" height="2.56" fill="#fff" stroke-width="0"/><rect x="349.71" y="363.35" width="28.1" height="4.26" fill="#fff" stroke-width="0"/><rect x="348.67" y="379.84" width="30.16" height="4.53" fill="#fff" stroke-width="0"/><rect x="349.71" y="349.74" width="28.1" height="4.01" fill="#fff" stroke-width="0"/><rect x="349.71" y="336.84" width="28.1" height="3.25" fill="#fff" stroke-width="0"/><rect x="349.71" y="324.34" width="28.1" height="3.25" fill="#fff" stroke-width="0"/><rect x="349.71" y="312.98" width="28.1" height="3.25" fill="#fff" stroke-width="0"/><rect x="349.71" y="302.75" width="28.1" height="3.25" fill="#fff" stroke-width="0"/><rect x="353.07" y="293.28" width="21.36" height="2.85" fill="#fff" stroke-width="0"/><g id="c"><polygon points="408.9 122.18 409.29 123.38 410.56 123.38 409.53 124.13 409.92 125.34 408.9 124.59 407.87 125.34 408.26 124.13 407.24 123.38 408.51 123.38 408.9 122.18" fill="#fff" stroke-width="0"/><polygon points="413.98 130.73 413.96 131.4 414.58 131.64 413.94 131.82 413.91 132.49 413.54 131.93 412.9 132.11 413.31 131.58 412.94 131.03 413.57 131.26 413.98 130.73" fill="#fff" stroke-width="0"/><polygon points="403.16 113.97 403.67 114.75 404.58 114.51 403.99 115.24 404.5 116.03 403.62 115.69 403.03 116.42 403.08 115.48 402.21 115.14 403.11 114.9 403.16 113.97" fill="#fff" stroke-width="0"/><polygon points="400.02 122.91 401.98 125.94 405.46 125.01 403.19 127.81 405.15 130.84 401.78 129.55 399.51 132.35 399.7 128.74 396.34 127.44 399.82 126.51 400.02 122.91" fill="#fff" stroke-width="0"/><polygon points="414.41 124.23 414.87 124.94 415.7 124.72 415.16 125.38 415.62 126.1 414.83 125.79 414.29 126.45 414.34 125.6 413.54 125.3 414.37 125.08 414.41 124.23" fill="#fff" stroke-width="0"/><polygon points="391.63 126.97 391.58 128.11 392.65 128.5 391.55 128.81 391.51 129.95 390.88 129 389.78 129.31 390.49 128.42 389.85 127.47 390.92 127.86 391.63 126.97" fill="#fff" stroke-width="0"/><polygon points="401.92 138.12 402.41 138.59 403 138.27 402.71 138.87 403.19 139.34 402.52 139.25 402.23 139.85 402.11 139.19 401.45 139.1 402.04 138.78 401.92 138.12" fill="#fff" stroke-width="0"/><polygon points="396.24 115.86 396.78 116.39 397.45 116.03 397.12 116.71 397.67 117.24 396.92 117.14 396.59 117.82 396.45 117.07 395.7 116.97 396.37 116.61 396.24 115.86" fill="#fff" stroke-width="0"/><polygon points="391.06 121.1 391.5 121.52 392.03 121.24 391.77 121.78 392.21 122.2 391.61 122.12 391.34 122.66 391.24 122.07 390.64 121.98 391.17 121.7 391.06 121.1" fill="#fff" stroke-width="0"/><polygon points="403.07 118.63 403.39 119.22 404.04 119.1 403.58 119.58 403.9 120.17 403.3 119.88 402.84 120.37 402.92 119.7 402.32 119.41 402.98 119.29 403.07 118.63" fill="#fff" stroke-width="0"/><polygon points="411.33 118.63 411.65 119.22 412.31 119.1 411.84 119.58 412.16 120.17 411.56 119.88 411.1 120.37 411.19 119.7 410.58 119.41 411.24 119.29 411.33 118.63" fill="#fff" stroke-width="0"/><polygon points="394.34 130.97 394.66 131.56 395.31 131.44 394.85 131.93 395.17 132.52 394.57 132.23 394.11 132.71 394.19 132.05 393.59 131.76 394.25 131.64 394.34 130.97" fill="#fff" stroke-width="0"/><polygon points="396.8 122.6 397 122.97 397.4 122.89 397.12 123.19 397.32 123.56 396.94 123.38 396.66 123.68 396.71 123.27 396.34 123.09 396.75 123.01 396.8 122.6" fill="#fff" stroke-width="0"/><polygon points="408.56 129.86 408.76 130.22 409.16 130.15 408.88 130.45 409.08 130.81 408.7 130.63 408.42 130.93 408.47 130.52 408.1 130.34 408.51 130.27 408.56 129.86" fill="#fff" stroke-width="0"/><polygon points="387.23 123.68 387.43 124.04 387.83 123.97 387.55 124.27 387.74 124.63 387.37 124.45 387.09 124.75 387.14 124.34 386.77 124.16 387.17 124.09 387.23 123.68" fill="#fff" stroke-width="0"/><polygon points="391.16 114.73 391.36 115.1 391.77 115.02 391.48 115.32 391.68 115.69 391.31 115.51 391.02 115.81 391.07 115.4 390.7 115.22 391.11 115.14 391.16 114.73" fill="#fff" stroke-width="0"/><polygon points="407.76 135.45 407.88 135.68 408.13 135.63 407.96 135.81 408.08 136.04 407.85 135.93 407.67 136.11 407.71 135.86 407.48 135.75 407.73 135.7 407.76 135.45" fill="#fff" stroke-width="0"/><polygon points="393.52 136.14 393.72 136.5 394.12 136.42 393.84 136.72 394.04 137.09 393.66 136.91 393.38 137.21 393.43 136.8 393.06 136.62 393.46 136.55 393.52 136.14" fill="#fff" stroke-width="0"/><polygon points="412.84 115.83 412.94 116.01 413.14 115.97 413 116.12 413.1 116.3 412.91 116.21 412.77 116.36 412.8 116.16 412.61 116.07 412.81 116.03 412.84 115.83" fill="#fff" stroke-width="0"/><polygon points="417.09 128.19 417.19 128.37 417.39 128.34 417.25 128.49 417.35 128.67 417.16 128.58 417.02 128.73 417.05 128.52 416.86 128.43 417.07 128.4 417.09 128.19" fill="#fff" stroke-width="0"/><polygon points="389.42 135.6 389.51 135.78 389.72 135.74 389.57 135.89 389.67 136.07 389.49 135.99 389.34 136.14 389.37 135.93 389.18 135.84 389.39 135.8 389.42 135.6" fill="#fff" stroke-width="0"/><polygon points="398.77 112.37 398.87 112.56 399.07 112.52 398.93 112.67 399.03 112.85 398.84 112.76 398.7 112.91 398.72 112.71 398.54 112.62 398.74 112.58 398.77 112.37" fill="#fff" stroke-width="0"/><polygon points="411.41 136.94 411.51 137.12 411.71 137.09 411.57 137.24 411.67 137.42 411.48 137.33 411.34 137.48 411.36 137.27 411.18 137.18 411.38 137.15 411.41 136.94" fill="#fff" stroke-width="0"/><polygon points="387.8 129.95 387.9 130.13 388.1 130.09 387.96 130.24 388.05 130.43 387.87 130.34 387.73 130.49 387.75 130.28 387.57 130.19 387.77 130.15 387.8 129.95" fill="#fff" stroke-width="0"/><polygon points="415.93 121.1 416.03 121.29 416.23 121.25 416.09 121.4 416.19 121.58 416 121.49 415.86 121.64 415.88 121.44 415.7 121.35 415.9 121.31 415.93 121.1" fill="#fff" stroke-width="0"/><polygon points="403.59 133 403.78 133.37 404.19 133.29 403.91 133.59 404.1 133.95 403.73 133.78 403.44 134.08 403.5 133.67 403.13 133.49 403.53 133.41 403.59 133" fill="#fff" stroke-width="0"/></g></svg>